<?xml version="1.0" standalone="no"?>
<!DOCTYPE svg PUBLIC "-//W3C//DTD SVG 20010904//EN"
 "http://www.w3.org/TR/2001/REC-SVG-20010904/DTD/svg10.dtd">
<svg version="1.0" xmlns="http://www.w3.org/2000/svg"
 width="256.000000pt" height="256.000000pt" viewBox="0 0 256.000000 256.000000"
 preserveAspectRatio="xMidYMid meet">
<metadata>
Created by potrace 1.11, written by Peter Selinger 2001-2013
</metadata>
<g transform="translate(0.000000,256.000000) scale(0.100000,-0.100000)"
fill="#000000" stroke="none">
<path d="M0 2081 c0 -520 -3 -496 55 -454 17 11 32 21 35 21 13 1 46 16 50 24
3 4 16 9 28 11 12 2 25 7 29 12 5 4 1 4 -7 0 -8 -5 -1 7 16 27 18 20 34 42 37
50 3 10 8 11 25 1 14 -8 23 -9 27 -3 4 6 1 9 -6 8 -6 -2 -13 2 -16 9 -4 12
107 106 116 98 2 -3 15 4 27 16 20 19 22 19 21 2 -1 -10 3 -17 10 -16 6 1 14
-4 17 -13 3 -8 2 -13 -3 -10 -5 3 -15 -2 -22 -12 -13 -15 -12 -16 4 -3 11 9
17 10 17 2 0 -6 4 -11 9 -11 5 0 9 13 9 30 -1 16 -5 27 -10 24 -15 -10 -8 9
10 23 15 13 15 13 -5 3 -19 -9 -23 -8 -23 5 0 10 5 13 12 9 6 -4 8 -3 4 4 -6
9 30 82 41 82 2 0 1 -4 -2 -10 -3 -5 1 -10 9 -10 9 0 16 -5 16 -12 0 -6 3 -8
6 -5 4 4 2 13 -5 20 -9 11 -8 17 4 27 8 7 15 20 15 29 0 12 -2 13 -9 3 -4 -8
-12 -14 -17 -15 -5 -1 -8 -6 -6 -10 1 -5 -2 -6 -7 -2 -15 9 -2 32 22 39 13 3
29 -2 41 -12 11 -9 16 -11 12 -4 -8 14 10 17 19 2 3 -5 -6 -12 -20 -16 -14 -3
-25 -10 -25 -15 0 -11 23 -7 32 6 5 6 8 4 8 -4 0 -12 2 -12 13 1 9 12 18 14
35 7 13 -5 20 -13 17 -19 -3 -5 2 -10 11 -10 10 0 14 3 11 6 -4 4 1 14 11 23
9 9 18 23 20 31 4 17 42 55 42 42 0 -4 -5 -13 -11 -19 -9 -9 -7 -11 5 -9 9 1
22 8 29 16 9 10 9 11 0 6 -8 -4 -13 -1 -13 8 0 19 20 31 43 28 9 -2 17 2 17 7
0 14 37 14 45 1 4 -6 -1 -7 -12 -4 -15 5 -16 4 -3 -5 28 -20 42 -14 29 12 -11
20 -11 21 4 9 9 -8 21 -11 27 -7 5 3 10 1 10 -5 0 -6 5 -8 12 -4 6 4 8 3 5 -3
-4 -6 4 -14 17 -17 21 -5 23 -11 20 -46 -2 -23 -6 -45 -9 -50 -3 -5 -1 -11 5
-15 6 -4 8 -11 5 -16 -4 -5 -1 -9 4 -9 13 0 14 17 2 24 -4 3 -6 17 -3 31 3 16
8 23 13 18 13 -13 30 -75 18 -68 -5 4 -9 2 -9 -4 0 -6 10 -15 21 -22 12 -6 18
-14 13 -18 -5 -3 -10 -12 -12 -20 -3 -12 0 -12 13 -1 8 7 18 10 22 6 3 -3 1
-6 -6 -6 -7 0 -9 -5 -6 -10 4 -6 1 -18 -7 -27 -7 -9 -8 -14 -2 -10 7 4 15 0
18 -9 4 -11 2 -15 -8 -11 -10 4 -13 1 -10 -7 3 -7 11 -13 18 -13 15 0 16 38 1
49 -6 5 -5 8 3 8 7 0 10 5 6 12 -4 7 -3 8 5 4 6 -4 9 -11 6 -16 -3 -5 4 -11
15 -15 11 -3 20 -13 20 -22 0 -13 -3 -13 -15 -3 -12 10 -15 10 -15 -3 0 -16
16 -17 38 -4 11 8 16 2 13 -16 -1 -5 3 -6 9 -2 6 3 14 -4 19 -17 6 -13 10 -19
10 -15 1 12 37 -25 44 -46 4 -10 11 -15 17 -12 5 3 10 -1 10 -9 0 -9 5 -16 11
-16 5 0 7 6 3 13 -4 6 9 -3 27 -20 19 -18 42 -33 50 -33 16 0 39 -19 39 -33 0
-4 -5 -5 -12 -1 -7 5 -8 3 -2 -7 5 -8 9 -17 9 -21 0 -3 4 -10 8 -15 5 -4 7 1
6 12 -4 22 6 28 34 19 9 -3 14 -10 11 -16 -4 -6 -10 -5 -15 3 -6 10 -9 10 -9
2 0 -19 17 -24 30 -8 9 10 17 12 30 5 9 -5 20 -6 24 -3 3 3 6 2 6 -4 0 -5 15
-10 33 -10 58 0 102 -7 109 -18 5 -6 8 -5 8 3 0 8 5 10 12 6 7 -4 29 -9 50
-10 48 -3 60 -11 53 -34 -4 -11 1 -20 11 -24 13 -5 14 -4 6 7 -7 8 -9 17 -5
20 3 4 13 -2 20 -13 8 -11 18 -18 22 -15 5 2 17 -2 27 -10 10 -8 29 -15 40
-15 12 0 27 -6 34 -14 6 -8 19 -13 28 -10 9 3 6 -2 -8 -11 l-25 -16 25 7 c14
4 30 7 35 7 31 0 46 -4 41 -12 -3 -5 4 -9 17 -9 12 0 42 -6 67 -13 47 -14 56
-16 78 -18 7 0 10 -6 6 -12 -5 -8 -1 -8 14 0 27 14 79 14 88 0 5 -8 9 -8 14 1
6 10 12 10 26 0 17 -10 17 -11 1 -6 -10 3 -15 2 -12 -4 3 -5 19 -7 34 -4 16 4
32 1 35 -5 4 -6 12 -9 17 -6 5 4 9 2 9 -4 0 -5 9 -13 21 -16 11 -4 18 -9 15
-12 -3 -3 -1 -14 4 -23 7 -13 5 -20 -6 -24 -12 -4 -15 -2 -10 9 3 8 2 14 -2
14 -18 -3 -26 2 -14 10 11 7 11 9 0 14 -10 3 -14 -3 -14 -18 0 -13 4 -21 10
-18 5 4 7 -1 3 -10 -5 -14 -1 -16 28 -13 19 2 38 7 43 10 6 3 8 -15 6 -41 -2
-29 0 -42 6 -34 4 8 6 20 3 27 -2 7 2 11 11 10 25 -3 30 -14 15 -33 -9 -11
-10 -14 -1 -9 6 4 12 2 12 -3 0 -6 4 -11 10 -11 6 0 10 246 10 680 l0 680
-1280 0 -1280 0 0 -479z m2474 -781 c-6 -6 -10 -2 -11 12 -2 16 1 18 10 9 7
-7 8 -14 1 -21z"/>
<path d="M910 2129 c0 -5 5 -7 10 -4 6 3 10 2 10 -3 0 -5 10 -12 23 -15 21 -6
21 -6 -3 13 -28 22 -40 25 -40 9z"/>
<path d="M818 2123 c-10 -2 -18 -8 -18 -13 0 -5 7 -6 17 -3 9 4 14 2 11 -3 -4
-5 4 -9 17 -9 13 0 23 5 22 10 -2 11 -19 25 -27 24 -3 -1 -13 -3 -22 -6z"/>
<path d="M546 2007 c3 -10 9 -15 12 -12 3 3 0 11 -7 18 -10 9 -11 8 -5 -6z"/>
<path d="M618 2003 c6 -2 18 -2 25 0 6 3 1 5 -13 5 -14 0 -19 -2 -12 -5z"/>
<path d="M499 1973 c-13 -16 -12 -17 4 -4 9 7 17 15 17 17 0 8 -8 3 -21 -13z"/>
<path d="M990 1976 c0 -2 8 -10 18 -17 15 -13 16 -12 3 4 -13 16 -21 21 -21
13z"/>
<path d="M979 1957 c12 -15 11 -17 -3 -17 -9 0 -16 -3 -16 -7 0 -5 14 -8 30
-8 37 0 37 4 2 30 -21 15 -24 15 -13 2z"/>
<path d="M405 1881 c-3 -6 -11 -8 -17 -5 -7 4 -8 2 -4 -5 6 -9 11 -9 22 0 17
14 19 -2 2 -21 -7 -8 -4 -7 7 2 14 13 16 21 8 29 -8 8 -13 8 -18 0z"/>
<path d="M350 1851 c0 -6 9 -9 19 -8 11 0 17 5 15 9 -7 11 -34 10 -34 -1z"/>
<path d="M305 1820 c-3 -5 -1 -10 4 -10 6 0 11 5 11 10 0 6 -2 10 -4 10 -3 0
-8 -4 -11 -10z"/>
<path d="M1129 1808 c-6 -25 -6 -37 1 -33 5 3 11 1 15 -5 3 -5 12 -10 18 -10
7 0 4 6 -5 14 -10 7 -15 15 -12 18 3 4 1 9 -5 13 -6 3 -11 5 -12 3z"/>
<path d="M1200 1718 c0 -3 9 -6 20 -5 11 1 20 5 20 9 0 3 -9 6 -20 5 -11 -1
-20 -5 -20 -9z"/>
<path d="M207 1714 c-3 -3 -3 -12 0 -19 5 -14 33 -9 33 6 0 4 -7 5 -17 2 -11
-4 -14 -3 -9 5 8 13 3 16 -7 6z"/>
<path d="M1244 1694 c-18 -15 -18 -15 3 -5 29 14 46 14 37 -1 -4 -7 -3 -8 5
-4 13 9 5 26 -13 26 -7 0 -21 -7 -32 -16z"/>
<path d="M128 1637 c18 -11 20 -15 10 -27 -11 -12 -10 -12 5 0 18 13 18 15 1
27 -10 7 -23 13 -28 13 -6 -1 -1 -6 12 -13z"/>
<path d="M75 1620 c-4 -6 -10 -8 -15 -5 -5 3 -11 1 -15 -5 -10 -16 21 -12 35
5 7 8 10 15 7 15 -3 0 -9 -5 -12 -10z"/>
<path d="M1669 1568 c-11 -8 -11 -9 3 -5 9 3 18 1 21 -6 2 -8 5 -8 10 0 9 15
-17 23 -34 11z"/>
<path d="M1730 1560 c-8 -5 -10 -10 -5 -10 6 0 3 -5 -5 -10 -8 -5 -10 -10 -5
-10 14 0 30 13 33 28 2 14 1 15 -18 2z"/>
<path d="M1850 1479 c0 -6 5 -7 10 -4 6 4 17 1 25 -5 15 -12 39 -5 31 9 -8 12
-66 11 -66 0z"/>
<path d="M1846 1451 c8 -8 43 -8 38 0 -2 4 -13 7 -24 6 -10 -1 -17 -3 -14 -6z"/>
<path d="M2161 1394 c0 -11 3 -14 6 -6 3 7 2 16 -1 19 -3 4 -6 -2 -5 -13z"/>
<path d="M2180 1370 c0 -5 5 -10 10 -10 6 0 10 5 10 10 0 6 -4 10 -10 10 -5 0
-10 -4 -10 -10z"/>
<path d="M1175 1110 c-4 -6 1 -7 12 -3 11 4 5 -7 -15 -28 -18 -19 -37 -34 -43
-34 -5 0 -9 -4 -8 -9 1 -12 -29 -28 -40 -22 -5 3 -11 -1 -14 -8 -5 -12 0 -13
26 -3 18 6 38 17 45 24 8 7 18 10 24 7 7 -4 8 -2 4 4 -4 6 7 23 24 38 16 15
30 31 30 36 0 11 -38 10 -45 -2z"/>
<path d="M1264 1113 c4 -7 2 -13 -3 -13 -6 0 -11 -5 -11 -11 0 -8 6 -7 17 2 9
8 17 12 19 9 1 -3 6 0 11 5 4 6 4 7 -1 3 -5 -4 -16 -2 -24 5 -13 9 -14 9 -8 0z"/>
<path d="M1310 1116 c0 -2 7 -7 16 -10 8 -3 12 -2 9 4 -6 10 -25 14 -25 6z"/>
<path d="M1470 1110 c0 -5 -9 -10 -20 -10 -11 0 -20 -4 -20 -9 0 -6 12 -6 30
0 16 6 27 15 24 20 -7 12 -14 11 -14 -1z"/>
<path d="M1225 1097 c-16 -20 -16 -37 0 -31 8 4 15 15 15 25 0 22 -1 23 -15 6z"/>
<path d="M1494 1091 c-5 -5 -18 -11 -29 -14 -18 -4 -17 -5 3 -6 13 0 21 -5 17
-10 -3 -5 -1 -13 5 -16 6 -4 10 -3 9 2 -1 4 0 17 1 28 2 17 3 17 10 -5 7 -23
8 -23 9 -3 1 25 -11 36 -25 24z"/>
<path d="M1587 1026 c-4 -11 2 -13 25 -10 17 2 33 6 37 10 3 4 -7 4 -22 0 -19
-4 -26 -3 -22 4 3 5 2 10 -3 10 -6 0 -12 -6 -15 -14z"/>
<path d="M1549 1011 c13 -12 28 -21 34 -21 12 0 11 0 -28 24 l-30 17 24 -20z"/>
<path d="M1620 976 c0 -2 7 -7 16 -10 8 -3 12 -2 9 4 -6 10 -25 14 -25 6z"/>
<path d="M563 943 c0 -10 4 -10 16 -1 9 7 18 13 20 15 2 1 -5 1 -16 0 -11 0
-20 -7 -20 -14z"/>
<path d="M1762 945 c2 -22 45 -32 45 -10 0 7 -7 11 -15 8 -8 -3 -18 0 -23 8
-6 10 -8 9 -7 -6z"/>
<path d="M510 919 c0 -5 5 -7 10 -4 6 3 10 8 10 11 0 2 -4 4 -10 4 -5 0 -10
-5 -10 -11z"/>
<path d="M1780 906 c0 -2 7 -7 16 -10 8 -3 12 -2 9 4 -6 10 -25 14 -25 6z"/>
<path d="M1823 895 c0 -8 4 -12 9 -9 5 3 6 10 3 15 -9 13 -12 11 -12 -6z"/>
<path d="M399 885 c-3 -2 -19 -5 -37 -7 -38 -3 -50 -22 -14 -25 18 -1 21 1 11
8 -12 7 -11 9 2 9 9 0 19 -3 23 -7 13 -13 31 -10 49 9 9 10 13 18 8 18 -6 0
-13 -4 -16 -10 -3 -5 -11 -10 -16 -10 -6 0 -7 5 -4 10 6 10 2 14 -6 5z"/>
<path d="M2085 870 c-3 -6 1 -7 9 -4 18 7 21 14 7 14 -6 0 -13 -4 -16 -10z"/>
<path d="M2417 858 c9 -10 17 -18 17 -18 1 0 2 8 2 18 0 10 -8 18 -18 18 -16
0 -16 -2 -1 -18z"/>
<path d="M2466 866 c4 -11 2 -21 -7 -27 -10 -6 -11 -9 -1 -9 18 0 27 29 13 43
-9 9 -11 8 -5 -7z"/>
<path d="M2218 863 c7 -3 16 -2 19 1 4 3 -2 6 -13 5 -11 0 -14 -3 -6 -6z"/>
<path d="M327 826 c-4 -10 -1 -13 8 -9 8 3 12 9 9 14 -7 12 -11 11 -17 -5z"/>
<path d="M213 786 c1 -6 -6 -10 -15 -8 -16 3 -31 -12 -34 -35 -3 -15 26 -2 45
21 7 8 18 14 24 12 7 -1 9 -1 4 1 -4 3 -5 8 -3 12 3 4 -1 8 -9 8 -8 0 -13 -5
-12 -11z m-23 -26 c0 -5 -5 -10 -11 -10 -5 0 -7 5 -4 10 3 6 8 10 11 10 2 0 4
-4 4 -10z"/>
<path d="M2518 783 c6 -2 18 -2 25 0 6 3 1 5 -13 5 -14 0 -19 -2 -12 -5z"/>
<path d="M58 713 c7 -3 16 -2 19 1 4 3 -2 6 -13 5 -11 0 -14 -3 -6 -6z"/>
<path d="M4 665 c0 -19 3 -22 17 -14 22 11 34 29 20 29 -6 0 -11 -4 -11 -10 0
-5 -5 -10 -11 -10 -5 0 -8 4 -4 9 3 5 2 12 -3 15 -4 2 -8 -6 -8 -19z"/>
</g>
</svg>
